<svg version="1.1" xmlns="http://www.w3.org/2000/svg" xmlns:xlink="http://www.w3.org/1999/xlink" width="414.5" height="265" viewBox="0,0,414.5,265"><g transform="translate(-30,-17)"><g data-paper-data="{&quot;isPaintingLayer&quot;:true}" fill="none" fill-rule="nonzero" stroke="#000000" stroke-width="5" stroke-linejoin="miter" stroke-miterlimit="10" stroke-dasharray="" stroke-dashoffset="0" style="mix-blend-mode: normal"><path d="M215,59.5c0,11.04569 -8.95431,20 -20,20h-20v-60h20c11.04569,0 20,8.95431 20,20z" stroke-linecap="butt"/><path d="" stroke-linecap="butt"/><path d="" stroke-linecap="butt"/><g stroke-linecap="round"><path d="M32.5,79.5v-40c0,-11.04569 8.95431,-20 20,-20c11.04569,0 20,8.95431 20,20v40"/><path d="M72.5,59.5h-40"/></g><path d="M203.5,153v40c0,11.04569 -8.95431,20 -20,20c-11.04569,0 -20,-8.95431 -20,-20v-40" stroke-linecap="round"/><path d="M72.5,86v40c0,11.04569 -8.95431,20 -20,20c-11.04569,0 -20,-8.95431 -20,-20" stroke-linecap="round"/><path d="M120.5,59.5c0,11.04569 -8.95431,20 -20,20h-20v-60h20c11.04569,0 20,8.95431 20,20c0,11.04569 -8.95431,20 -20,20" stroke-linecap="round"/><path d="M334.5,146v-60h20c11.04569,0 20,8.95431 20,20c0,11.04569 -8.95431,20 -20,20h-20" data-paper-data="{&quot;index&quot;:null}" stroke-linecap="round"/><path d="M168,59.5c0,11.04569 -8.95431,20 -20,20c-11.04569,0 -20,-8.95431 -20,-20v-20c0,-11.04569 8.95431,-20 20,-20c11.04569,0 20,8.95431 20,20" stroke-linecap="round"/><g stroke-linecap="round"><path d="M268.5,79.5v-60h40"/><path d="M288.5,59.5h-20"/></g><path d="M394.5,19.5" stroke-linecap="round"/><path d="M354.5,19.5" stroke-linecap="round"/><g stroke-linecap="round"><path d=""/><path d="M402,79.5h40"/><path d="M422,79.5v-60"/><path d="M442,19.5h-40"/></g><g data-paper-data="{&quot;index&quot;:null}" stroke-linecap="round"><path d=""/><path d="M157,153h-40"/><path d="M137,153v60"/></g><path d="M328,49.5h20v10c0,11.04569 -8.95431,20 -20,20c-11.04569,0 -20,-8.95431 -20,-20v-20c0,-11.04569 8.95431,-20 20,-20c11.04569,0 20,8.95431 20,20" stroke-linecap="round"/><path d="M328,126c0,11.04569 -8.95431,20 -20,20c-11.04569,0 -20,-8.95431 -20,-20v-20c0,-11.04569 8.95431,-20 20,-20c11.04569,0 20,8.95431 20,20z" data-paper-data="{&quot;index&quot;:null}" stroke-linecap="round"/><path d="M420.5,126c0,11.04569 -8.95431,20 -20,20c-11.04569,0 -20,-8.95431 -20,-20v-20c0,-11.04569 8.95431,-20 20,-20c11.04569,0 20,8.95431 20,20z" data-paper-data="{&quot;index&quot;:null}" stroke-linecap="round"/><path d="M400.5,116l20,30" data-paper-data="{&quot;index&quot;:null}" stroke-linecap="round"/><g stroke-linecap="round"><path d="M262,79.5h-40v-60h40"/><g data-paper-data="{&quot;index&quot;:null}"><path d="M222,49.5h40"/></g></g><g stroke-linecap="round"><path d="M354.5,79.5v-60"/><path d="M394.5,19.5v60"/><g data-paper-data="{&quot;index&quot;:null}"><path d="M354.5,49.5h40"/></g></g><path d="" stroke-linecap="round"/><path d="" stroke-linecap="round"/><g stroke-linecap="round"><path d="M80.5,146v-60"/><path d="M80.5,116l40,30"/><path d="M120.5,86l-40,30"/></g><path d="M168,146h-40v-60" stroke-linecap="round"/><g stroke-linecap="round"><path d="M234.91667,146v-60"/><path d="M175,86v60"/><path d="M234.91667,86l-29.95833,60"/><path d="M204.95834,146l-29.95834,-60"/></g><g stroke-linecap="round"><path d="M241.5,146v-60"/><path d="M241.5,86l40,60"/><path d="M281.5,86v60" data-paper-data="{&quot;index&quot;:null}"/></g><g stroke-linecap="round"><path d="M32.5,213v-60h20c11.04569,0 20,8.95431 20,20c0,11.04569 -8.95431,20 -20,20h-20" data-paper-data="{&quot;index&quot;:null}"/><path d="M52.5,193l20,20" data-paper-data="{&quot;index&quot;:null}"/></g><g stroke-linecap="round"><path d="M119.5,193c0,11.04569 -8.95431,20 -20,20c-11.04569,0 -20,-8.95431 -20,-20"/><path d="M99.5,193c-11.04569,0 -20,-8.95431 -20,-20c0,-11.04569 8.95431,-20 20,-20c11.04569,0 20,8.95431 20,20"/></g><path d="" stroke-linecap="round"/><g stroke-linecap="round"><path d="M250,153l-20,60"/><path d="M230,213l-20,-60"/></g><g stroke-linecap="round"><path d="M296.5,153l-20,60"/><path d="M276.5,213l-20,-60"/><path d="M336.5,153l-20,60"/><path d="M316.5,213l-20,-60"/></g><g stroke-linecap="round"><path d="M343.5,153l40,60"/><path d="M343.5,213l40,-60"/></g><g stroke-linecap="round"><path d="M390,153l20,40" data-paper-data="{&quot;index&quot;:null}"/><path d="M410,213v-20" data-paper-data="{&quot;index&quot;:null}"/><path d="M410,193l20,-40" data-paper-data="{&quot;index&quot;:null}"/></g><g stroke-linecap="round"><path d="M32.5,219.5h40"/><path d="M32.5,279.5h40"/><path d="M72.5,219.5l-40,60"/></g></g></g></svg>