<svg version="1.1" xmlns="http://www.w3.org/2000/svg" xmlns:xlink="http://www.w3.org/1999/xlink" width="446.5" height="233" viewBox="0,0,446.5,233"><g transform="translate(-30,-17)"><g data-paper-data="{&quot;isPaintingLayer&quot;:true}" fill="none" fill-rule="nonzero" stroke="#000000" stroke-width="5" stroke-linejoin="miter" stroke-miterlimit="10" stroke-dasharray="" stroke-dashoffset="0" style="mix-blend-mode: normal"><g><path d="M32.5,59.5c0,-11.04569 8.95431,-20 20,-20c11.04569,0 20,8.95431 20,20c0,11.04569 -8.95431,20 -20,20c-11.04569,0 -20,-8.95431 -20,-20z" stroke-linecap="butt"/><path d="M72.5,79.5v-40" stroke-linecap="round"/></g><g><path d="M98.5,79.5c-11.04569,0 -20,-8.95431 -20,-20c0,-11.04569 8.95431,-20 20,-20c11.04569,0 20,8.95431 20,20c0,11.04569 -8.95431,20 -20,20z" stroke-linecap="butt"/><path d="M78.5,79.5v-60" stroke-linecap="round"/></g><path d="M346,79.5v-60" stroke-linecap="round"/><path d="M392.5,19.5" stroke-linecap="round"/><g data-paper-data="{&quot;index&quot;:null}"><path d="M170.5,59.5c0,-11.04569 8.95431,-20 20,-20c11.04569,0 20,8.95431 20,20c0,11.04569 -8.95431,20 -20,20c-11.04569,0 -20,-8.95431 -20,-20z" stroke-linecap="butt"/><path d="M210.5,79.5v-60" stroke-linecap="round"/></g><g data-paper-data="{&quot;index&quot;:null}"><path d="M277.5,115c11.04569,0 20,8.95431 20,20c0,11.04569 -8.95431,20 -20,20c-11.04569,0 -20,-8.95431 -20,-20c0,-11.04569 8.95431,-20 20,-20z" stroke-linecap="butt"/><path d="M297.5,175v-60" stroke-linecap="round"/></g><g data-paper-data="{&quot;index&quot;:null}"><path d="M251.5,135c0,11.04569 -8.95431,20 -20,20c-11.04569,0 -20,-8.95431 -20,-20c0,-11.04569 8.95431,-20 20,-20c11.04569,0 20,8.95431 20,20z" stroke-linecap="butt"/><path d="M211.5,115v60" stroke-linecap="round"/></g><path d="M185.5,115c11.04569,0 20,8.95431 20,20c0,11.04569 -8.95431,20 -20,20c-11.04569,0 -20,-8.95431 -20,-20c0,-11.04569 8.95431,-20 20,-20z" data-paper-data="{&quot;index&quot;:null}" stroke-linecap="butt"/><path d="" stroke-linecap="butt"/><path d="M236.5,79.5c-11.04569,0 -20,-8.95431 -20,-20c0,-11.04569 8.95431,-20 20,-20c11.04569,0 20,8.95431 20,20h-40" stroke-linecap="round"/><g stroke-linecap="round"><path d="M262.5,79.5v-40c0,-11.04569 8.95431,-20 20,-20c11.04569,0 20,8.95431 20,20"/><path d="M282.5,59.5h-20"/></g><path d="M144.5,79.5c-11.04569,0 -20,-8.95431 -20,-20c0,-11.04569 8.95431,-20 20,-20c11.04569,0 20,8.95431 20,20" stroke-linecap="round"/><path d="M399.5,39.5v40c0,11.04569 -8.95431,20 -20,20c-11.04569,0 -20,-8.95431 -20,-20" data-paper-data="{&quot;index&quot;:null}" stroke-linecap="round"/><path d="M392.5,39.5v40" data-paper-data="{&quot;index&quot;:null}" stroke-linecap="round"/><path d="M346,59.5c0,-11.04569 8.95431,-20 20,-20c11.04569,0 20,8.95431 20,20v20" stroke-linecap="round"/><path d="M392.5,19.5z" stroke-linecap="round"/><path d="M399.5,19.5z" stroke-linecap="round"/><g stroke-linecap="round"><path d="M406,79.5v-60"/><path d="M446,79.5l-40,-20"/><path d="M406,59.5l40,-20"/></g><path d="M452.5,79.5v-60" stroke-linecap="round"/><g stroke-linecap="round"><path d="M119,155v-40"/><path d="M119,135c0,-11.04569 8.95431,-20 20,-20c11.04569,0 20,8.95431 20,20v20" data-paper-data="{&quot;index&quot;:null}"/></g><g data-paper-data="{&quot;index&quot;:null}" stroke-linecap="round"><path d="M474,155v-40"/><path d="M474,135c0,11.04569 -8.95431,20 -20,20c-11.04569,0 -20,-8.95431 -20,-20v-20" data-paper-data="{&quot;index&quot;:null}"/></g><g stroke-linecap="round"><path d="M304,155v-40"/><path d="M304,135c0,-11.04569 8.95431,-20 20,-20c11.04569,0 20,8.95431 20,20" data-paper-data="{&quot;index&quot;:null}"/></g><g stroke-linecap="round"><path d="M339.5,59.5c0,11.04569 -8.95431,20 -20,20c-11.04569,0 -20,-8.95431 -20,-20c0,-11.04569 8.95431,-20 20,-20c11.04569,0 20,8.95431 20,20z"/><path d="M339.5,39.5v40c0,11.04569 -8.95431,20 -20,20c-11.04569,0 -20,-8.95431 -20,-20" data-paper-data="{&quot;index&quot;:null}"/></g><path d="" stroke-linecap="round"/><g stroke-linecap="round"><path d="M370.5,155c-11.04569,0 -20,-8.95431 -20,-20c0,-11.04569 8.95431,-20 20,-20c11.04569,0 20,8.95431 20,20"/><path d="M390.5,155c0,11.04569 -8.95431,20 -20,20c-11.04569,0 -20,-8.95431 -20,-20" data-paper-data="{&quot;index&quot;:null}"/></g><path d="M214,187.5" data-paper-data="{&quot;index&quot;:null}" stroke-linecap="round"/><g stroke-linecap="round"><path d="M407.5,155v-60"/><path d="M387.5,115h40" data-paper-data="{&quot;index&quot;:null}"/></g><g stroke-linecap="round"><path d="M32.5,155v-40"/><path d="M32.5,135c0,-11.04569 8.95431,-20 20,-20c11.04569,0 20,8.95431 20,20v20" data-paper-data="{&quot;index&quot;:null}"/><path d="M72.5,135c0,-11.04569 8.95431,-20 20,-20c11.04569,0 20,8.95431 20,20v20" data-paper-data="{&quot;index&quot;:null}"/></g><g stroke-linecap="round"><path d="M52.5,227.5l20,-40" data-paper-data="{&quot;index&quot;:null}"/><path d="M52.5,227.5l-20,-40" data-paper-data="{&quot;index&quot;:null}"/></g><path d="M120.5,187.5" data-paper-data="{&quot;index&quot;:null}" stroke-linecap="butt"/><g stroke-linecap="round"><path d="M79.5,187.5l20,40"/><path d="M119.5,187.5l-20,40"/><path d="M139.5,227.5l-20,-40"/><path d="M159.5,187.5l-20,40"/></g><g stroke-linecap="round"><path d="M166.5,187.5l40,40"/><path d="M166.5,227.5l40,-40"/></g><g stroke-linecap="round"><path d="M253.5,207.5c0,11.04569 -8.95431,20 -20,20c-11.04569,0 -20,-8.95431 -20,-20v-20" data-paper-data="{&quot;index&quot;:null}"/><path d="M253.5,187.5v40c0,11.04569 -8.95431,20 -20,20c-11.04569,0 -20,-8.95431 -20,-20" data-paper-data="{&quot;index&quot;:null}"/></g><g stroke-linecap="round"><path d="M260,187.5h40"/><path d="M260,227.5h40"/><path d="M300,187.5l-40,40"/></g></g></g></svg>