<svg version="1.1" xmlns="http://www.w3.org/2000/svg" xmlns:xlink="http://www.w3.org/1999/xlink" width="429.5" height="65" viewBox="0,0,429.5,65"><g transform="translate(-30,-17)"><g data-paper-data="{&quot;isPaintingLayer&quot;:true}" fill="none" fill-rule="nonzero" stroke="#000000" stroke-width="5" stroke-linejoin="miter" stroke-miterlimit="10" stroke-dasharray="" stroke-dashoffset="0" style="mix-blend-mode: normal"><path d="M145.5,79.5h-40c0,-11.04569 8.95431,-20 20,-20c11.04569,0 20,-8.95431 20,-20c0,-11.04569 -8.95431,-20 -20,-20c-11.04569,0 -20,8.95431 -20,20" stroke-linecap="round"/><g stroke-linecap="round"><path d="M143,19.5h40"/><path d="M163,39.5l20,-20"/><path d="M143,59.5c0,11.04569 8.95431,20 20,20c11.04569,0 20,-8.95431 20,-20c0,-11.04569 -8.95431,-20 -20,-20"/></g><path d="" stroke-linecap="butt"/><path d="" stroke-linecap="butt"/><path d="" data-paper-data="{&quot;index&quot;:null}" stroke-linecap="butt"/><path d="M230,79.5v-60" stroke-linecap="round"/><path d="M190,19.5v40h40" stroke-linecap="round"/><path d="M32.5,39.5c0,-11.04569 8.95431,-20 20,-20c11.04569,0 20,8.95431 20,20v20c0,11.04569 -8.95431,20 -20,20c-11.04569,0 -20,-8.95431 -20,-20z" stroke-linecap="round"/><path d="M99,79.5v-60c-11.04569,0 -20,8.95431 -20,20" stroke-linecap="round"/><path d="M276.5,19.5h-40v20h20c11.04569,0 20,8.95431 20,20c0,11.04569 -8.95431,20 -20,20c-11.04569,0 -20,-8.95431 -20,-20" stroke-linecap="round"/><path d="M303,39.5c11.04569,0 20,8.95431 20,20c0,11.04569 -8.95431,20 -20,20c-11.04569,0 -20,-8.95431 -20,-20v-20c0,-11.04569 8.95431,-20 20,-20c11.04569,0 20,8.95431 20,20" stroke-linecap="round"/><path d="M437,59.5c-11.04569,0 -20,-8.95431 -20,-20c0,-11.04569 8.95431,-20 20,-20c11.04569,0 20,8.95431 20,20v20c0,11.04569 -8.95431,20 -20,20c-11.04569,0 -20,-8.95431 -20,-20" data-paper-data="{&quot;index&quot;:null}" stroke-linecap="round"/><path d="M325,79.5c0,-11.04569 8.95431,-20 20,-20c11.04569,0 20,-8.95431 20,-20v-20h-40" stroke-linecap="round"/><g data-paper-data="{&quot;index&quot;:null}" stroke-linecap="round"><path d="M411,59.5c0,11.04569 -8.95431,20 -20,20c-11.04569,0 -20,-8.95431 -20,-20c0,-11.04569 8.95431,-20 20,-20"/><path d="M371,39.5c0,-11.04569 8.95431,-20 20,-20c11.04569,0 20,8.95431 20,20c0,11.04569 -8.95431,20 -20,20" data-paper-data="{&quot;index&quot;:null}"/></g></g></g></svg>